<svg width="120" height="120" viewBox="0 0 120 120" fill="none" xmlns="http://www.w3.org/2000/svg">
<g clip-path="url(#clip0_2_7)">
<path opacity="0.3" d="M120.177 0.176758L112.603 7.75H120V8.25H112.25V37.75H120V38.25H112.25V59.75H120V60.25H112.25V81.75H120V82.25H112.25V111.75H120V112.25H112.603L120.177 119.823L119.823 120.177L112.25 112.604V120H111.75V112.25H82.25V120H81.75V112.25H60.25V120H59.75V112.25H38.25V120H37.75V112.25H8.24997V120H7.74997V112.604L0.176727 120.177L-0.176788 119.823L7.39645 112.25H-3.05176e-05V111.75H7.74997V82.25H-3.05176e-05V81.75H7.74997V60.25H-3.05176e-05V59.75H7.74997V38.25H-3.05176e-05V37.75H7.74997V8.25H-3.05176e-05V7.75H7.39645L-0.176788 0.176758L0.176727 -0.176758L7.74997 7.39648V0H8.24997V7.75H37.75V0H38.25V7.75H59.75V0H60.25V7.75H81.75V0H82.25V7.75H111.75V0H112.25V7.39648L119.823 -0.176758L120.177 0.176758ZM8.60349 111.75H37.75V107.288C32.3367 104.737 27.4339 101.282 23.2324 97.1201L8.60349 111.75ZM38.25 111.75H52.7441C47.6397 111.041 42.7716 109.593 38.25 107.521V111.75ZM81.75 107.521C77.2283 109.593 72.3603 111.041 67.2558 111.75H81.75V107.521ZM96.7666 97.1201C92.5652 101.282 87.663 104.737 82.25 107.288V111.75H111.396L96.7666 97.1201ZM38.25 106.97C44.7916 110.004 52.073 111.712 59.75 111.748V92.2461C51.4668 92.1832 43.9276 88.9998 38.25 83.8105V106.97ZM81.75 83.8105C76.0723 88.9998 68.5331 92.1832 60.25 92.2461V111.748C67.927 111.712 75.2084 110.004 81.75 106.97V83.8105ZM8.24997 111.396L22.8789 96.7666C18.7174 92.5653 15.2632 87.6628 12.7119 82.25H8.24997V111.396ZM107.288 82.25C104.737 87.6631 101.282 92.5652 97.1201 96.7666L111.75 111.396V82.25H107.288ZM23.5859 96.7666C27.6917 100.833 32.4736 104.218 37.75 106.734V83.3447C37.6233 83.224 37.4987 83.1013 37.374 82.9785L23.5859 96.7666ZM82.625 82.9785C82.5005 83.1011 82.3764 83.2242 82.25 83.3447V106.734C87.5262 104.218 92.3074 100.833 96.4131 96.7666L82.625 82.9785ZM83.3457 82.25C83.2249 82.3766 83.1012 82.5003 82.9785 82.625L96.7666 96.4131C100.833 92.3074 104.218 87.5262 106.734 82.25H83.3457ZM13.2656 82.25C15.782 87.526 19.1662 92.3075 23.2324 96.4131L37.0205 82.625C36.8979 82.5005 36.7748 82.3765 36.6543 82.25H13.2656ZM38.25 83.127C43.8758 88.4198 51.4313 91.6819 59.75 91.7461V82.25H38.25V83.127ZM60.25 91.7461C68.5687 91.6819 76.1241 88.4198 81.75 83.127V82.25H60.25V91.7461ZM37.7285 82.624C37.7357 82.6311 37.7427 82.6384 37.75 82.6455V82.6035L37.7285 82.624ZM82.25 82.6455C82.257 82.6386 82.2634 82.631 82.2705 82.624L82.25 82.6035V82.6455ZM82.624 82.2705C82.6309 82.2635 82.6385 82.2571 82.6455 82.25H82.6035L82.624 82.2705ZM37.375 82.2705L37.3965 82.25H37.3545C37.3612 82.2569 37.3682 82.2636 37.375 82.2705ZM8.24997 81.75H12.4795C10.4066 77.2284 8.95912 72.3603 8.24997 67.2559V81.75ZM8.25095 60.25C8.28725 67.9268 9.9951 75.2085 13.0293 81.75H36.1884C30.9995 76.0724 27.8158 68.5329 27.7529 60.25H8.25095ZM28.2529 60.25C28.3171 68.5687 31.5801 76.1242 36.873 81.75H37.75V60.25H28.2529ZM38.6035 81.75H55.2949C51.1233 80.8519 47.3873 78.7844 44.4453 75.9072L38.6035 81.75ZM82.25 81.75H83.1269C88.4198 76.1242 91.6829 68.5687 91.747 60.25H82.25V81.75ZM92.247 60.25C92.1842 68.5329 89.0005 76.0724 83.8115 81.75H106.971C110.005 75.2085 111.713 67.9269 111.749 60.25H92.247ZM111.75 67.2559C111.041 72.3603 109.593 77.2284 107.52 81.75H111.75V67.2559ZM75.5537 75.9072C72.6118 78.7842 68.8764 80.8519 64.705 81.75H81.3965L75.5537 75.9072ZM44.7988 75.5537C48.6647 79.3325 53.9325 81.6806 59.75 81.7461V60.6035L44.7988 75.5537ZM60.25 81.7461C66.0672 81.6806 71.3343 79.3322 75.2002 75.5537L60.25 60.6035V81.7461ZM38.25 81.3965L44.0918 75.5537C41.2149 72.6117 39.1479 68.8756 38.25 64.7041V81.3965ZM81.75 64.7041C80.852 68.8758 78.7843 72.6116 75.9072 75.5537L81.75 81.3965V64.7041ZM75.5537 75.2002C79.3322 71.3344 81.6815 66.0672 81.747 60.25H60.6035L75.5537 75.2002ZM38.2529 60.25C38.3184 66.067 40.6671 71.3344 44.4453 75.2002L59.3965 60.25H38.2529ZM13.0293 38.25C9.9951 44.7915 8.28726 52.0732 8.25095 59.75H27.7529C27.8158 51.4671 30.9995 43.9276 36.1884 38.25H13.0293ZM36.873 38.25C31.5801 43.8758 28.3171 51.4313 28.2529 59.75H37.75V38.25H36.873ZM60.6035 59.75H81.747C81.6815 53.9325 79.3325 48.6647 75.5537 44.7988L60.6035 59.75ZM82.25 59.75H91.747C91.6829 51.4313 88.4198 43.8758 83.1269 38.25H82.25V59.75ZM83.8115 38.25C89.0005 43.9276 92.1841 51.4671 92.247 59.75H111.749C111.713 52.0732 110.005 44.7915 106.971 38.25H83.8115ZM44.4453 44.7988C40.6668 48.6646 38.3184 53.9328 38.2529 59.75H59.3965L44.4453 44.7988ZM60.25 59.3965L75.2002 44.4453C71.3344 40.6671 66.0669 38.3184 60.25 38.2529V59.3965ZM59.75 38.2529C53.9328 38.3185 48.6646 40.6668 44.7988 44.4453L59.75 59.3965V38.2529ZM38.25 55.2949C39.1481 51.1236 41.2148 47.3872 44.0918 44.4453L38.25 38.6035V55.2949ZM75.9072 44.4453C78.7844 47.3873 80.8518 51.1233 81.75 55.2949V38.6035L75.9072 44.4453ZM8.24997 52.7432C8.95917 47.6391 10.4067 42.7713 12.4795 38.25H8.24997V52.7432ZM107.52 38.25C109.593 42.7713 111.041 47.6391 111.75 52.7432V38.25H107.52ZM64.705 38.25C68.8762 39.148 72.6118 41.2151 75.5537 44.0918L81.3965 38.25H64.705ZM44.4453 44.0918C47.3872 41.2149 51.1235 39.1481 55.2949 38.25H38.6035L44.4453 44.0918ZM8.24997 37.75H12.7119C15.2633 32.3369 18.7172 27.4338 22.8789 23.2324L8.24997 8.60352V37.75ZM23.2324 23.5859C19.166 27.6916 15.7821 32.4738 13.2656 37.75H36.6543C36.775 37.6234 36.8977 37.4987 37.0205 37.374L23.2324 23.5859ZM59.75 28.2529C51.4315 28.3171 43.8757 31.5795 38.25 36.8721V37.75H59.75V28.2529ZM60.25 37.75H81.75V36.8721C76.1242 31.5795 68.5684 28.3171 60.25 28.2529V37.75ZM82.6035 37.75H82.6455C82.6384 37.7428 82.6311 37.7357 82.624 37.7285L82.6035 37.75ZM82.9785 37.374C83.1014 37.4988 83.2248 37.6232 83.3457 37.75H106.734C104.218 32.4736 100.833 27.6917 96.7666 23.5859L82.9785 37.374ZM97.1201 23.2324C101.282 27.4339 104.737 32.3367 107.288 37.75H111.75V8.60352L97.1201 23.2324ZM37.3545 37.75H37.3965L37.375 37.7285C37.368 37.7356 37.3614 37.7429 37.3545 37.75ZM82.25 37.3965L82.2715 37.374C82.2644 37.3671 82.257 37.3605 82.25 37.3535V37.3965ZM37.7275 37.374L37.75 37.3965V37.3535C37.7427 37.3606 37.7347 37.3669 37.7275 37.374ZM37.75 13.2646C32.4736 15.7811 27.6917 19.1659 23.5859 23.2324L37.374 37.0205C37.4987 36.8978 37.6233 36.775 37.75 36.6543V13.2646ZM82.25 36.6543C82.3764 36.7749 82.5005 36.8979 82.625 37.0205L96.4131 23.2324C92.3074 19.1661 87.5261 15.781 82.25 13.2646V36.6543ZM59.75 8.25098C52.0731 8.28729 44.7915 9.99513 38.25 13.0293V36.1885C43.9276 30.9995 51.4671 27.8158 59.75 27.7529V8.25098ZM60.25 27.7529C68.5329 27.8158 76.0724 30.9995 81.75 36.1885V13.0293C75.2085 9.99513 67.9268 8.28728 60.25 8.25098V27.7529ZM82.25 12.7109C87.663 15.2623 92.5652 18.7174 96.7666 22.8789L111.396 8.25H82.25V12.7109ZM23.2324 22.8789C27.4339 18.7172 32.3368 15.2624 37.75 12.7109V8.25H8.60349L23.2324 22.8789ZM38.25 12.4785C42.7715 10.4057 47.6398 8.95913 52.7441 8.25H38.25V12.4785ZM67.2558 8.25C72.3601 8.95913 77.2285 10.4057 81.75 12.4785V8.25H67.2558Z" fill="white"/>
<path d="M24.5 64V111M34.5 74V112M15 71.5V106M54 76V112M64 61V112M44.5 81.5V112M83.5 38.5V112M93.5 44.5V111M74 44.5V112M103.5 54V107.5" stroke="url(#paint0_linear_2_7)"/>
<path d="M112 64.5V43.4302C112 32.3528 111.974 27.3201 110.275 21.9116C108.199 16.2569 103.743 11.8013 98.0883 9.72505C92.6789 8.0259 87.6479 8 76.5697 8H43.4302C32.352 8 27.3201 8.02591 21.9117 9.72503C16.257 11.8013 11.8013 16.257 9.72503 21.9117C8.02591 27.3202 8 32.3529 8 43.4302V76.5697C8 78.7678 8.00102 80.7279 8.01593 82.5M112 64.5C112 64.5 92.5 38 82 38C76.75 38 70.375 49 64 60C57.625 71 51.25 82 46 82C40.1236 82 36.1264 76.2054 32.6063 71.1023C29.8366 67.0871 27.3622 63.5 24.5 63.5C18 63.5 8.01593 82.5 8.01593 82.5M112 64.5V76.5697C112 87.6479 111.974 92.679 110.275 98.0884C108.199 103.743 103.743 108.199 98.0883 110.274C92.679 111.974 87.6482 112 76.5697 112H43.4302C32.3517 112 27.3201 111.974 21.9117 110.274C16.2571 108.199 11.8014 103.743 9.72505 98.0883C8.36304 93.7523 8.07615 89.6593 8.01593 82.5" stroke="white" stroke-width="2"/>
</g>
<defs>
<linearGradient id="paint0_linear_2_7" x1="98.5" y1="58.5" x2="26" y2="111.5" gradientUnits="userSpaceOnUse">
<stop stop-color="white"/>
<stop offset="0.706731" stop-color="white" stop-opacity="0"/>
</linearGradient>
<clipPath id="clip0_2_7">
<rect width="120" height="120" fill="white"/>
</clipPath>
</defs>
</svg>
